<?xml version="1.0" encoding="utf-8"?>
<svg version="1.1" xmlns="http://www.w3.org/2000/svg" xmlns:xlink="http://www.w3.org/1999/xlink" x="0px" y="0px" viewBox="0 0 60 60" style="enable-background:new 0 0 60 60;" xml:space="preserve">
<path fill="#ffffff" d="M49.2,26.3c-0.5-8.2-8.8-14.6-19.2-14.6c-10.6,0-19.2,6.9-19.2,15.2c0,7.7,7.2,14.1,16.6,15.2
	c0.6,0,1,0.6,1,1.1L27.9,47c-0.2,0.8,0.8,1.4,1.4,1.1c8-3.8,12.6-7.8,15.5-11.2c0.5-0.6,2.2-3,2.6-3.7c0.8-1.3,1.3-2.7,1.4-4.2
	c0.2-0.5,0.2-0.8,0.2-1.1C49.2,27.5,49.2,26.7,49.2,26.3z M22.3,32.3h-4c-0.5,0-1-0.5-1-1v-7.4c0-0.5,0.5-1,1-1c0.5,0,1,0.5,1,1v6.4
	h2.9c0.5,0,1,0.5,1,1C23.4,31.8,23,32.3,22.3,32.3z M26.3,31.5c0,0.5-0.3,0.8-0.8,0.8H25c-0.5,0-0.8-0.3-0.8-0.8v-7.8
	c0-0.5,0.3-0.8,0.8-0.8h0.5c0.5,0,0.8,0.3,0.8,0.8V31.5z M35.4,31.1c0,0.5-0.5,1-1,1c-0.3,0-0.5-0.2-0.6-0.3l-4-5.3V31
	c0,0.5-0.5,1-1,1c-0.5,0-1-0.5-1-1v-7.4c0-0.5,0.5-1,1-1c0.3,0,0.6,0.2,0.8,0.3l4,5.1v-4.5c0-0.5,0.5-1,1-1s1,0.5,1,1v7.5H35.4z
	 M41.8,26.5c0.5,0,1,0.5,1,1c0,0.5-0.5,1-1,1H39v1.8h2.9c0.5,0,1,0.5,1,1c0,0.5-0.5,1-1,1h-4c-0.5,0-1-0.5-1-1v-7.4c0-0.5,0.5-1,1-1
	h4c0.5,0,1,0.5,1,1s-0.5,1-1,1H39v1.8C39,26.5,41.8,26.5,41.8,26.5z"/>
</svg>
