<?xml version="1.0" encoding="utf-8"?>
<!-- Generator: Adobe Illustrator 25.2.1, SVG Export Plug-In . SVG Version: 6.00 Build 0)  -->
<svg version="1.1" id="圖層_1" xmlns="http://www.w3.org/2000/svg" xmlns:xlink="http://www.w3.org/1999/xlink" x="0px" y="0px"
	 viewBox="0 0 100 100" style="enable-background:new 0 0 100 100;" xml:space="preserve">
<style type="text/css">
	.st0{fill:#FFFFFF;}
</style>
<path class="st0" d="M548.3,41.6l10.7,7.1c1.6,1,2.4,1.9,2.4,2.3c0,0.8-1.1,1.7-3.2,2.5v18.4c0,3.2,0.6,5.4,1.9,6.7
	c1.5,1.3,6.1,1.9,14,1.9h55.5v2c-2.7,1.9-4.1,6.5-4.1,13.9h-48.6c-3.6,0-7-1.4-10.3-4.1c-4.8-3.7-8.6-8.5-11.3-14.7l-13.1,18.4
	c-0.6,1.9-0.9,2.8-0.9,2.8c-0.1,0.8-0.6,1.3-1.5,1.3c-0.7,0-1.5-0.8-2.2-2.4c0,0-2.3-4.7-6.8-13.9l11.4-5.3V49.9h-9.8l-1.1-2.9h11
	L548.3,41.6z M553.2,25.4c2.7,2.1,4.1,4.8,4.1,8c0,2.1-0.7,3.9-2.2,5.4c-1.6,1.7-3.3,2.4-5.2,2.4c-2,0-3.7-0.8-5.1-2.5
	c-1.3-1.4-2-3.1-2.2-5.2c0-1.6-0.5-3.1-1.5-4.8c-0.6-1.5-2.2-3.1-4.6-5l0.7-1.7C545.4,22.1,550.7,23.2,553.2,25.4z M556.9,6.7
	c2.7,1.9,4.1,4.3,4.1,7.2c0,2-0.7,3.8-2.2,5.4c-1.6,1.6-3.2,2.3-5.1,2.3c-2.1,0-3.8-0.7-5.2-2.2c-1.2-1.3-2-2.9-2.2-4.9
	c0-1.5-0.5-3-1.5-4.5c-0.6-1.4-2.2-2.9-4.6-4.7l0.8-1.7C549.2,3.7,554.4,4.7,556.9,6.7z M585.7,8.2c0.4,0.2,0.7,0.3,0.9,0.4V2.1
	l16.9,1.4c2,0.2,3,0.8,3,1.9c0,0.8-1.4,1.8-4.1,2.8v11.1h3.8l7.3-8.6l10.5,8.6l-2,2.8h-19.6v15.1h8.1l7.4-9l11,9l-2,2.8h-66.5
	l-1.3-2.8h27.4V22.1h-9.2c-0.7,0.8-1.4,1.5-1.9,2.1c-4,4.2-8.4,8-12.9,11.4l-1.3-0.8c1.9-4.4,3.6-9.1,5-14.1c0.9-3.6,2-9,3.1-16.1
	L585.7,8.2z M584.3,47.8h19.3l6.8-6.2l12,7.9c1.2,0.9,1.8,1.7,1.8,2.3c0,0.8-1.2,1.7-3.2,2.5V76l-17.1,2.4v-5.7h-19.2v4.5l-16.7,2.5
	V42L584.3,47.8z M586.7,11.1c-0.6,0.4-1.5,0.8-2.4,1.1c-1.7,2.7-3.1,5-4.6,7h7V11.1z M603.8,69.8V50.6h-19.2v19.2H603.8z"/>
<path class="st0" d="M712.3,1.7l12.7,8.1c1.3,1,2,1.8,2,2.4c0,0.9-1.3,1.9-3.7,2.9v15.9l-3.2,0.4c8.3,5.6,12.4,8.5,12.4,8.5
	c0.8,0.6,1.4,1.5,1.4,2.5c0,1-0.6,1.9-1.9,2.3l-2.6,1c0,12.2-0.7,23.6-2.1,34.2c-1.3,8.4-3.1,13.6-5.7,15.9c-3.1,2.2-8.8,3.3-17,3.3
	c0-5.6-0.6-9.2-2.1-10.8c-1.7-2.1-4.2-3.3-7.7-3.9v-2.9h14c1.7-9.2,2.6-22.6,2.7-40.3h-51.8v4.8c-0.1,9.5-1.7,18.3-4.8,26.3
	c-3.6,9.1-9.5,17.2-18.1,24.8l-1.6-1.7c2.6-5.5,4.6-11.9,5.8-19.4c1.2-7,1.8-17,1.9-30V0.9l16.9,7.3h44.9L712.3,1.7z M659.7,25.7
	h45.7V11.1h-45.7V25.7z M717.6,31.8l-12.1,1.7v-4.9h-45.7v9.8h50.8L717.6,31.8z M678.2,50.6h9.4l6.4-6.1l12.1,7.8
	c1.1,1,1.8,1.8,1.8,2.3c0,0.8-0.9,1.7-2.8,2.5v20.4L687.9,80v-7h-9.4v7.4l-16.7,2.4V45L678.2,50.6z M687.9,70.2V53.5h-9.4v16.7
	H687.9z"/>
<path class="st0" d="M158,17v7.8h21.6l7.7-9.8l11.8,9.8l-2,2.8H158v8.3h8.8l7.9-6.6l12.7,8.3c1.3,0.9,2,1.8,2,2.4
	c0,0.8-1.5,1.8-4.2,2.8v27.4l-2.2,0.3l7.9,6.6l-2,2.8h-31V91h22l8.1-10.2L200,91l-2,2.8h-95.2l-1.1-2.8h38.8V79.9h-32.3l-1.3-2.8
	h33.5v-9h-9.8v3.7l-17.5,2.9V29.8l17.9,6.2h9.5v-8.3h-37.2l-1.2-2.8h38.3v-6.8c-13.5,0.7-24.2,1-32.3,1l-0.4-1.6
	c23.2-4.2,42.7-9.7,58.4-16.7l17,11.7c1.1,0.8,1.8,1.5,1.8,2.1c0,1.1-0.7,1.7-2.1,1.7c-0.6,0-1.9-0.2-3.7-0.8
	C171.6,16.1,164.5,16.6,158,17z M140.4,49.7v-11h-9.8v11H140.4z M140.4,65.3V52.6h-9.8v12.6H140.4z M158,49.7h9.4v-11H158V49.7z
	 M158,65.3h9.4V52.6H158V65.3z M158,77.1h13.9l4.7-5.7l-9.2,1.3v-4.5H158V77.1z"/>
<path class="st0" d="M226.1,15.2v7.2h14.5l6.7-7l11.8,7.5c1,0.7,1.7,1.4,1.7,1.9c0,0.8-1.3,2-3.7,3.7v17c2.2-6.4,4.1-13,5.7-19.8
	c1.3-5.9,2.6-14.4,4.1-25.7l17.7,4.2c1.3,0.3,1.9,0.9,1.9,1.9c0,0.8-1.3,1.7-3.7,2.5c-2.3,5.7-4.6,10.7-6.7,14.6h8.4l7.7-9.7
	l11.8,9.7l-2,2.9h-4c-2.4,20.1-5.7,34.7-10,43.9c4.2,3.1,9.3,6.2,15.6,9.2v2c-2.2,0.8-4.4,2.4-6.5,4.7c-1.6,2.1-3,6.2-4.5,12.4
	c-6.2-5.1-11.1-10-14.7-14.8c-6.5,5.7-15.1,10.4-26.1,14l-0.8-2c1.7-1.3,3.3-2.5,4.8-3.8l-14.5,2.1v-4.9h-7.8v6.6l-15.9,2.4V80.2
	c-2.9,4.1-6.5,7.7-10.7,11.2l-1.6-1.3c1.9-4.3,3.3-9.3,4.3-15.1c0.8-5.4,1.4-13.2,1.5-23.2V5.3l14.4,6.3c7.9-3.1,14.8-7,20.6-11.6
	l14.1,10c0.9,0.6,1.5,1.3,1.5,1.8c0,0.8-0.6,1.3-1.7,1.3c-0.6,0-1.7-0.2-3.2-0.8C243.8,13.9,233.6,14.8,226.1,15.2z M271.5,72.8
	c-3.1-7.5-5.2-18.5-6.4-32.9c-2.5,3.3-5.1,6.4-7.6,9.1l-1.3-0.8c0.2-0.5,0.3-1,0.5-1.7l-15.6,2.1v-3.8h-15.1v7c0,1.6-0.1,3-0.2,4.4
	l7.2,2.5h7.7l5.6-5.6l11.7,7.5c1.1,0.9,1.8,1.7,1.8,2.2c0,0.8-0.7,1.7-2,2.5v24.5C263.9,84.4,268.4,78.8,271.5,72.8z M226.1,42h15.1
	V25.3h-15.1V42z M241.2,86.1V61.6h-7.8v24.4H241.2z M276.6,57.9c1.9-8.1,3.3-18.8,4.4-31.8h-6.5c-0.6,1.3-1.3,2.3-1.9,3.1
	c-1.5,2.2-2.8,4.3-4.2,6.2C271,45.2,273.7,52.7,276.6,57.9z"/>
<path class="st0" d="M-78.8,2.3l13,8.9c1.2,0.8,1.9,1.6,1.9,2.2c0,0.8-1.2,1.4-3.4,2c-0.2,0.2-0.3,0.3-0.3,0.3
	c3.8,2.6,7.8,4.8,11.9,6.6c6.5,2.5,15.6,4.8,27.3,6.9v2c-4.3,2-7.2,7.2-8.8,15.7c-10.1-4.3-17.7-8.8-22.9-13.5
	c-3.3-2.5-7-7.2-11.1-14c-6.6,6.5-13.1,11.6-19.7,15.4c-8.9,4.9-18.8,9-29.7,12.1l-1.2-1.6c8.7-4.7,15.9-9.6,21.5-14.7
	c4.1-3.7,9-9.9,14.9-18.6h-22.6l-1.2-2.6h24L-78.8,2.3z M-49,43.6l-1.9,2.6h-16.5v17.6h8.4l8-9.6l11.5,9.6l-2.4,2.6h-25.6v21.1h16.8
	l8.4-10.4l12.2,10.4l-2.4,2.6h-84.1l-1.2-2.6h32.9V66.5h-23.3l-1.2-2.6h24.5V46.3h-18l-1.1-2.6h35.9l7.6-9.6L-49,43.6z"/>
<path class="st0" d="M41.5,13.7l-1.9,2.6H27.4v20.8l4.2-5.1l7.3,6c-0.8-1.8-1.7-3.4-2.7-4.8l1.2-1.5c6.7,2.4,11.1,4.5,13,6.5
	c1.5,1.9,2.3,3.9,2.3,6.1c0,2-0.7,3.7-2,5.3c-1.6,1.7-3.3,2.5-5.3,2.5c-1.3,0-2.3-0.6-3.3-1.9c-1-1-1.6-3.3-1.8-7.1
	c-0.2-1.5-0.6-2.8-1-4l-1.3,2.2H27.4v18.3l13.8-3.3v1.9L12.5,80c-0.9,2.1-1.8,3-2.7,3c-0.6,0-1.1-0.7-1.6-2.2L3.3,65.4l9.6-2.4V41.3
	H5.2l-1.1-2.6h8.8V16.4H4.8l-1.1-2.6h21.7L32,6.1L41.5,13.7z M95.9,24.8l-1.5,2.7H70.2v4.8c1.3,4.5,2.8,8.4,4.8,11.8
	c2.7-4.5,5.1-9,7.2-13.5L93.9,40c0.8,0.6,1.2,1.3,1.2,2.1c-0.1,0.6-0.5,0.8-1.1,0.8c-0.8,0-1.7-0.1-2.7-0.4
	c-5.5,2.4-10.1,4.1-13.9,5.4c0.2,0.3,0.4,0.6,0.6,0.8c4.1,5.5,10.2,10.2,18.3,14.1v1.9c-5.1,3.1-7.9,8.8-8.4,17.2
	c-7-6.5-11.8-13-14.5-19.9c-1.2-2.7-2.3-6.1-3.1-10V83c0,3.3-1.2,5.9-3.4,7.8c-2.8,2.2-7.9,3.2-15.3,3.2c-0.4-4.8-1-7.9-1.9-9.4
	c-1.3-1.8-2.8-3-4.6-3.9v-1.6h9.1V59.7c-5,8.4-9.6,15.7-13.7,21.7c-0.6,2.4-1.2,3.5-2,3.5c-0.8,0-1.6-1-2.5-2.7l-6.7-13.4
	c7.6-4.7,16-10.8,24.9-18.2v-23H33.5l-1.1-2.7h21.7V2.7l16.6,1.2c2.3,0.3,3.4,0.8,3.4,1.5c0,0.8-0.6,1.5-1.8,2.2
	c6,1.6,9.9,2.9,11.8,4.2c1.5,1.4,2.3,2.7,2.3,4.3c0,2-0.7,3.6-2,5.1c-1.4,1.6-3,2.3-5,2.3c-1.2,0-2.3-0.5-3.2-1.5
	c-1-0.8-1.5-2.5-1.7-5.5c-0.4-2.9-1.7-5.5-3.9-7.6l0.1-0.3c-0.2,0.2-0.3,0.3-0.5,0.3v16.1h13l5-8.4L95.9,24.8z"/>
<path class="st0" d="M433.2,11.8l-1.9,2.7h-32.4c4.2,2,9,3.5,14.3,4.6c4.9,1.2,11.9,2.1,21.2,2.6v2c-3.5,2.1-6,6.9-7.2,14.5
	c-6.4-2-11.5-4-15.4-6.2h-3.3l7.9,6.2l-1.5,2.6h-6.1l8.3,6.6l-1.5,2.6h-1l8.2,6.5l-1.6,2.7h-48.6v3.4l-14.9,1.9v-18
	c-3.5,2.1-7.3,3.9-11.5,5.5l-0.8-0.8c5.7-4.7,10.5-9.7,14.2-15.1c1.2-1.8,2.4-3.8,3.4-6c-7,3.2-14,5.7-21.1,7.2l-0.8-1.2
	c6.5-3.7,12.5-8.5,18.1-14.2c2.1-1.9,4.3-4.4,6.8-7.5h-21.8l-1.2-2.7h25.2c2-2.6,4-5.7,6.3-9.1l17.3,2.7c1.2,0.5,1.8,1.1,1.8,1.9
	c0,0.6-1.1,1.3-3,1.9c-1,1-1.9,1.9-2.6,2.6h27.9l6.9-8.4L433.2,11.8z M433.6,66.5l-1.5,2.6h-18V86c0,1.9-1,3.5-2.7,5
	c-2,1.5-7.1,2.3-15.3,2.3c-0.6-3.7-2-6.5-4.3-8.3c-2.2-1.6-4.8-2.7-7.9-3.5V80h15V69.2h-33.2c5.3,1.8,8.7,3.4,10.5,5
	c1.6,1.8,2.4,3.7,2.4,5.8c0,2.4-0.8,4.3-2.4,6.3c-1.8,1.9-3.7,2.8-6.1,2.8c-1.2,0-2.4-0.7-3.3-1.9c-1-1.1-1.6-3.4-1.8-7.1
	c-0.4-3.8-1.8-7.1-4.1-10.1l0.5-0.8H346l-1.2-2.6h54v-6.5l14.9,0.9c2,0.2,3,0.8,3,1.8c0,0.8-0.9,1.5-2.6,2.3v1.6h4.6l6.1-6.9
	L433.6,66.5z M382.8,38.2v-6.2h-8.1c-0.7,0.9-1.3,1.7-1.9,2.4v3.8H382.8z M382.8,47.4v-6.6h-10v6.6H382.8z M382.8,56.6v-6.5h-10v6.5
	H382.8z M384.1,29.4l1.7-10.3l12.1,2.2c1,0.2,1.6,0.5,2,0.8c-1.9-2.4-3.2-4.9-4.1-7.5h-10.6c-1.9,1.8-3.5,3.2-5.1,4.5l2.2,0.6
	c1,0.4,1.6,0.8,1.6,1.4c0,0.7-1.1,1.4-3,2c-1.4,2.4-2.8,4.5-4.2,6.5H384.1z M400,29.4l3.1-3.7c-1.2-1-2.2-2.1-2.9-3.2
	c0,0.2,0.1,0.4,0.1,0.5c0,0.9-0.9,1.5-2.6,1.9c-2,1.5-4.5,3-7.4,4.6H400z M396.9,38.2h5.4l5.5-6.2h-10.9V38.2z M396.9,47.4h5.4
	l5.8-6.6h-11.2V47.4z M407.6,56.6l5.4-6.5h-16.2v6.5H407.6z"/>
<path class="st0" d="M483.9,11.1l-1.1,2.6h-14.2v6.9h5l5-5.7l4.6,3.6l-0.4-1h7.9c0-4.4,0.1-9.5,0.1-15.3l14.5,0.9
	c1.8,0.1,2.6,0.6,2.6,1.4c0,1-1.1,2-3,3c-0.2,3.7-0.3,7.1-0.4,10h3.8l4.6-5c6.5,4.2,9.7,6.3,9.7,6.3c0.8,0.6,1.3,1.2,1.4,1.8
	c-0.1,0.8-0.4,1.4-0.9,1.7l-1.8,1.1V39c0,1.8,0.4,3.3,1.2,4.6l5.4-8.4l1.1,1.1c-2.1,6.2-3,10.3-3,12.2c0,2.4,1,4.8,3,7.3
	c0,0.9-0.8,2.1-2.2,3.5c-1.5,1.5-2.9,2.2-4.3,2.2c-4,0-7.2-2-9.7-5.7c-1.8-2.8-3-6-3.7-9.5c-0.2,0.3-0.4,0.6-0.6,0.8
	c-1.6,1.8-3.2,2.5-4.8,2.5c-2.4,0-4.1-1.2-4.9-3.5c-0.2-0.2-0.3-0.5-0.3-0.7c-1.6,2.2-3.3,4-5.4,5.5c-2.5,2-5.4,3.5-8.6,4.7l0.8,0.1
	c1.8,0.6,2.7,1.3,2.7,2c0,1.3-1.3,2.4-3.8,3.4c-0.2,0.6-0.4,1.2-0.5,1.6h14.9l6.7-5.8c8.5,5.7,12.8,8.5,12.8,8.5
	c0.6,0.4,1,0.9,1,1.5c0,0.9-0.4,1.5-1.1,1.9l-2.4,1.6c-2,11.6-4.1,18.4-6.4,20.8c-2.2,2-8.2,2.9-18.1,2.9c-0.2-3.5-1.1-6.4-2.8-8.5
	c-1.2-1.6-4.2-2.7-9.1-3.7v-2.3h17.8c1.2-4.1,2-8.8,2.4-14.2h-16.7c-2.7,7.4-6.2,12.7-10.1,16c-6.6,5.5-17.5,9.7-32.8,12.7l-0.8-1.5
	c10.6-5.5,18-11.3,22.3-17.5c1.8-2.4,3.1-5.6,4.3-9.7h-19.3l-1.2-2.6h21.1c0.5-2.5,0.9-5.3,1.3-8.4l-21.9,7.2
	c-0.8,1.9-1.5,2.7-2,2.7c-0.6,0-1.1-0.6-1.5-2l-2.7-11.9c4.9-0.2,9.6-0.4,14.2-0.6v-5.6h-11.5l-1.2-2.6h12.6v-7.4
	c-3.5,2-8.7,3.6-15.7,4.8l-0.4-1.6c4-1.7,6.8-3.5,8.2-5.5c1.2-1.8,1.9-4.6,2.1-8.6h-8.8l-1.1-2.7h15.7v-6.9h-11.5l-1.2-2.6h12.6V2.3
	l14.4,0.9c2.1,0.2,3.1,0.8,3.1,1.8c0,0.8-0.9,1.6-2.6,2.4v3.8h3l5-5.4L483.9,11.1z M464.2,33.8c-0.1-0.4-0.1-0.8-0.1-1.4v-9.1h-3.9
	c-0.4,4.5-1.8,7.6-4.1,9.4c-0.4,0.3-0.6,0.5-0.8,0.6L464.2,33.8z M478.8,54.5c2.9-2.2,5.1-4.5,6.7-6.9c1.8-2.7,3.1-6.6,4-11.3
	c0.1-0.7,0.2-1.6,0.4-2.5c-1.8-1.6-3.7-3.2-6-5.2l0.8-1.1c2,0.6,3.8,1.2,5.6,1.7c0.1-2.5,0.2-5.5,0.4-9h-5.3l0.5,0.4l-1.2,2.7h-8.8
	v4.9c0,0.8,0.5,1.2,1.4,1.2c1-0.2,1.9-1.7,2.8-4.6h1.6c0,2,0.3,3.2,0.8,3.8c0.4,0.6,1.4,1.2,3,1.6c-0.6,3.1-1.4,5-2.3,5.7
	c-0.9,1.1-2.1,1.6-3.5,1.6h-1.9l5.7,4.2l-1.1,2.6h-13.8V49c4.7-0.4,9.3-0.8,13.8-1.2l0.4,1.5L471.5,53L478.8,54.5z M468.7,38.2v3.4
	h2.6l3.9-4.2h-4.9C469.8,37.7,469.2,38,468.7,38.2z M507.8,37.5c0.2,0.2,0.4,0.4,0.6,0.5V20.2h-4c-0.4,6.1-0.9,10.9-1.5,14.2
	C504.9,35.4,506.5,36.5,507.8,37.5z"/>
</svg>
